<?xml version="1.0" encoding="UTF-8" standalone="no"?>
<!-- Created with Inkscape (http://www.inkscape.org/) -->

<svg
   version="1.0"
   width="48"
   height="48"
   id="svg3675"
   sodipodi:version="0.32"
   inkscape:version="1.1.2 (0a00cf5339, 2022-02-04)"
   sodipodi:docname="Spotify.svg"
   inkscape:output_extension="org.inkscape.output.svg.inkscape"
   xmlns:inkscape="http://www.inkscape.org/namespaces/inkscape"
   xmlns:sodipodi="http://sodipodi.sourceforge.net/DTD/sodipodi-0.dtd"
   xmlns:xlink="http://www.w3.org/1999/xlink"
   xmlns="http://www.w3.org/2000/svg"
   xmlns:svg="http://www.w3.org/2000/svg"
   xmlns:rdf="http://www.w3.org/1999/02/22-rdf-syntax-ns#"
   xmlns:cc="http://creativecommons.org/ns#"
   xmlns:dc="http://purl.org/dc/elements/1.1/">
  <metadata
     id="metadata29">
    <rdf:RDF>
      <cc:Work
         rdf:about="">
        <dc:format>image/svg+xml</dc:format>
        <dc:type
           rdf:resource="http://purl.org/dc/dcmitype/StillImage" />
      </cc:Work>
    </rdf:RDF>
  </metadata>
  <sodipodi:namedview
     inkscape:window-height="1002"
     inkscape:window-width="1920"
     inkscape:pageshadow="2"
     inkscape:pageopacity="0.0"
     guidetolerance="10.0"
     gridtolerance="10.0"
     objecttolerance="10.0"
     borderopacity="1.0"
     bordercolor="#666666"
     pagecolor="#ffffff"
     id="base"
     showgrid="false"
     inkscape:zoom="19.094603"
     inkscape:cx="17.989377"
     inkscape:cy="20.215136"
     inkscape:window-x="0"
     inkscape:window-y="0"
     inkscape:current-layer="svg3675"
     inkscape:pagecheckerboard="0"
     inkscape:window-maximized="1" />
  <defs
     id="defs3677">
    <linearGradient
       id="linearGradient8838">
      <stop
         id="stop8840"
         style="stop-color:#000000;stop-opacity:1"
         offset="0" />
      <stop
         id="stop8842"
         style="stop-color:#000000;stop-opacity:0"
         offset="1" />
    </linearGradient>
    <linearGradient
       id="linearGradient2490-182-124">
      <stop
         id="stop2788"
         style="stop-color:#000000;stop-opacity:0.239"
         offset="0" />
      <stop
         id="stop2790"
         style="stop-color:#000000;stop-opacity:0.08"
         offset="1" />
    </linearGradient>
    <linearGradient
       id="linearGradient3242-187-536">
      <stop
         id="stop2778"
         style="stop-color:#8badea;stop-opacity:1"
         offset="0" />
      <stop
         id="stop2780"
         style="stop-color:#6396cd;stop-opacity:1"
         offset="0.26238" />
      <stop
         id="stop2782"
         style="stop-color:#3b7caf;stop-opacity:1"
         offset="0.66093999" />
      <stop
         id="stop2784"
         style="stop-color:#194c70;stop-opacity:1;"
         offset="1" />
    </linearGradient>
    <linearGradient
       id="linearGradient4873">
      <stop
         id="stop4875"
         style="stop-color:#ffffff;stop-opacity:1"
         offset="0" />
      <stop
         id="stop4877"
         style="stop-color:#ffffff;stop-opacity:0"
         offset="1" />
    </linearGradient>
    <linearGradient
       inkscape:collect="always"
       xlink:href="#linearGradient4873"
       id="linearGradient2407"
       gradientUnits="userSpaceOnUse"
       gradientTransform="matrix(2.3271462,0,0,2.3270932,-120.74944,30.172266)"
       x1="63.397362"
       y1="-12.489107"
       x2="63.397362"
       y2="5.4675598" />
    <linearGradient
       inkscape:collect="always"
       xlink:href="#linearGradient2490-182-124"
       id="linearGradient2412"
       gradientUnits="userSpaceOnUse"
       gradientTransform="matrix(1.0543867,0,0,1.0543869,-1.3052819,-3.3030565)"
       x1="18.379412"
       y1="44.980297"
       x2="18.379412"
       y2="3.0816143" />
    <radialGradient
       inkscape:collect="always"
       xlink:href="#linearGradient8838"
       id="radialGradient2415"
       gradientUnits="userSpaceOnUse"
       gradientTransform="matrix(2.3814173,0,0,0.82831799,-125.13626,34.672918)"
       cx="62.625"
       cy="4.625"
       fx="62.625"
       fy="4.625"
       r="10.625" />
    <linearGradient
       id="a"
       x1="160.08"
       x2="100.08"
       y1="40.079999"
       y2="180"
       gradientUnits="userSpaceOnUse">
      <stop
         offset="0"
         stop-color="#37aee2"
         id="stop880" />
      <stop
         offset="1"
         stop-color="#1e96c8"
         id="stop882" />
    </linearGradient>
    <linearGradient
       id="b"
       x1="123.67709"
       x2="146.50331"
       y1="131.03925"
       y2="174.66004"
       gradientTransform="scale(1.0919068,0.9158291)"
       gradientUnits="userSpaceOnUse">
      <stop
         offset="0"
         stop-color="#eff7fc"
         id="stop885" />
      <stop
         offset="1"
         stop-color="#fff"
         id="stop887" />
    </linearGradient>
    <radialGradient
       id="radialGradient28"
       spreadMethod="pad"
       gradientTransform="matrix(122.22253,-178.88718,-178.88718,-122.22252,103.22852,205.99658)"
       gradientUnits="userSpaceOnUse"
       r="1"
       cy="0"
       cx="0"
       fy="0"
       fx="0">
      <stop
         id="stop24"
         offset="0"
         style="stop-opacity:1;stop-color:#99bc4a" />
      <stop
         id="stop26"
         offset="1"
         style="stop-opacity:1;stop-color:#689f4d" />
    </radialGradient>
    <radialGradient
       id="radialGradient48"
       spreadMethod="pad"
       gradientTransform="matrix(139.44524,-47.777588,-47.777588,-139.44524,106.55957,212.66309)"
       gradientUnits="userSpaceOnUse"
       r="1"
       cy="0"
       cx="0"
       fy="0"
       fx="0">
      <stop
         id="stop44"
         offset="0"
         style="stop-opacity:1;stop-color:#3f5a39" />
      <stop
         id="stop46"
         offset="1"
         style="stop-opacity:1;stop-color:#3b4c33" />
    </radialGradient>
    <radialGradient
       id="radialGradient68"
       spreadMethod="pad"
       gradientTransform="matrix(113.88893,-42.778229,-42.778229,-113.88893,112.11572,165.44141)"
       gradientUnits="userSpaceOnUse"
       r="1"
       cy="0"
       cx="0"
       fy="0"
       fx="0">
      <stop
         id="stop64"
         offset="0"
         style="stop-opacity:1;stop-color:#4b7343" />
      <stop
         id="stop66"
         offset="1"
         style="stop-opacity:1;stop-color:#425e3b" />
    </radialGradient>
    <radialGradient
       id="radialGradient88"
       spreadMethod="pad"
       gradientTransform="matrix(102.22221,-36.111252,-36.357239,-102.91853,112.11621,113.77441)"
       gradientUnits="userSpaceOnUse"
       r="1"
       cy="0"
       cx="0"
       fy="0"
       fx="0">
      <stop
         id="stop84"
         offset="0"
         style="stop-opacity:1;stop-color:#67944b" />
      <stop
         id="stop86"
         offset="1"
         style="stop-opacity:1;stop-color:#5e8d4a" />
    </radialGradient>
    <radialGradient
       id="radialGradient108"
       spreadMethod="pad"
       gradientTransform="matrix(69.457626,0,0,-69.457626,127.86328,43.142578)"
       gradientUnits="userSpaceOnUse"
       r="1"
       cy="0"
       cx="0"
       fy="0"
       fx="0">
      <stop
         id="stop104"
         offset="0"
         style="stop-opacity:1;stop-color:#364332" />
      <stop
         id="stop106"
         offset="1"
         style="stop-opacity:1;stop-color:#313930" />
    </radialGradient>
  </defs>
  <path
     style="display:inline;overflow:visible;visibility:visible;opacity:0.3;fill:url(#radialGradient2415);fill-opacity:1;fill-rule:evenodd;stroke:none;stroke-width:1;stroke-linecap:butt;stroke-linejoin:round;stroke-miterlimit:4;stroke-dasharray:none;stroke-dashoffset:0;stroke-opacity:1;marker:none;marker-start:none;marker-mid:none;marker-end:none"
     id="path8836"
     d="m 49.302557,38.503893 c 0,4.860598 -11.328343,8.800891 -25.302561,8.800891 -13.974215,0 -25.3025582,-3.940293 -25.3025582,-8.800891 0,-4.860596 11.3283432,-8.80089 25.3025582,-8.80089 13.974218,0 25.302561,3.940294 25.302561,8.80089 z" />
  <g
     id="g914"
     transform="matrix(0.18335187,0,0,0.18335187,1.9977752,0)"
     style="display:none;opacity:1;stroke-width:5.45399">
    <circle
       cx="120"
       cy="120"
       r="120"
       fill="url(#a)"
       id="circle892"
       style="display:inline;fill:url(#a);stroke-width:5.45399" />
    <path
       fill="#c8daea"
       d="m 98,175 c -3.888,0 -3.227,-1.468 -4.568,-5.17 L 82,132.207 170,80"
       id="path894"
       style="stroke-width:24.8521" />
    <path
       fill="#a9c9dd"
       d="m 98,175 c 3,0 4.325,-1.372 6,-3 l 16,-15.558 -19.958,-12.035"
       id="path896"
       style="stroke-width:24.8521" />
    <path
       fill="url(#b)"
       d="m 159.276,170.51414 19.685,-92.763 c 2.015,-8.08 -3.08,-11.746 -8.36,-9.349 l -115.59,44.571 c -7.89,3.165 -7.843,7.567 -1.438,9.528 l 29.663,9.259 87.8517,-53.706384"
       id="path1185"
       style="opacity:0.2;fill:#000000;fill-opacity:1;stroke-width:5.45399"
       sodipodi:nodetypes="ccccccc" />
    <path
       fill="url(#b)"
       d="m 100.04,144.41 48.36,35.729 c 5.519,3.045 9.501,1.468 10.876,-5.123 l 19.685,-92.763 c 2.015,-8.08 -3.08,-11.746 -8.36,-9.349 l -115.59,44.571 c -7.89,3.165 -7.843,7.567 -1.438,9.528 l 29.663,9.259 68.673,-43.325 c 3.242,-1.966 6.218,-0.91 3.776,1.258"
       id="path898"
       style="display:inline;fill:url(#b);stroke-width:5.45399" />
  </g>
  <g
     transform="matrix(0.15522527,0,0,-0.15522472,1.9998449,43.999999)"
     id="g10"
     style="stroke-width:8.58968">
    <g
       id="g12"
       style="stroke-width:8.58968">
      <g
         id="g14"
         style="stroke-width:8.58968">
        <g
           id="g20"
           style="stroke-width:8.58968">
          <g
             id="g22"
             style="stroke-width:8.58968">
            <path
               id="path30"
               style="fill:url(#radialGradient28);stroke:none;stroke-width:8.58968"
               d="M 141.731,283.46 C 63.455,283.46 0.001,220.003 0.001,141.727 v 0 C 0.001,63.833 62.842,0.616 140.59,0 v 0 h 2.282 c 77.409,0.613 140.044,63.286 140.588,140.713 v 0 2.029 C 282.914,220.549 219.668,283.46 141.731,283.46 Z" />
          </g>
        </g>
      </g>
    </g>
    <g
       id="g32"
       style="stroke-width:8.58968">
      <g
         id="g34"
         style="stroke-width:8.58968">
        <g
           id="g40"
           style="stroke-width:8.58968">
          <g
             id="g42"
             style="stroke-width:8.58968">
            <path
               id="path50"
               style="fill:url(#radialGradient48);stroke:none;stroke-width:8.58968"
               d="m 50.226,214.002 c -6.257,-1.843 -9.835,-8.411 -7.994,-14.667 v 0 c 1.845,-6.256 8.406,-9.836 14.669,-7.991 v 0 c 20.57,6.06 41.945,9.133 63.529,9.133 v 0 c 39.952,0 79.189,-10.643 113.467,-30.776 v 0 c 1.88,-1.104 3.938,-1.63 5.97,-1.63 v 0 c 4.051,0 7.997,2.087 10.197,5.832 v 0 c 3.304,5.624 1.422,12.862 -4.203,16.166 v 0 c -37.901,22.263 -81.277,34.029 -125.431,34.029 v 0 c -23.846,0 -47.464,-3.396 -70.204,-10.096" />
          </g>
        </g>
      </g>
    </g>
    <g
       id="g52"
       style="stroke-width:8.58968">
      <g
         id="g54"
         style="stroke-width:8.58968">
        <g
           id="g60"
           style="stroke-width:8.58968">
          <g
             id="g62"
             style="stroke-width:8.58968">
            <path
               id="path70"
               style="fill:url(#radialGradient68);stroke:none;stroke-width:8.58968"
               d="m 59.404,165.638 c -5.588,-1.794 -8.668,-7.78 -6.875,-13.369 v 0 c 1.794,-5.591 7.781,-8.665 13.37,-6.876 v 0 c 17.585,5.642 35.932,8.502 54.531,8.502 v 0 c 33.477,0 66.114,-9.339 94.381,-27.008 v 0 c 1.752,-1.095 3.699,-1.618 5.624,-1.618 v 0 c 3.544,0 7.008,1.773 9.024,4.998 v 0 c 3.111,4.978 1.6,11.537 -3.381,14.648 v 0 c -31.65,19.784 -68.184,30.239 -105.648,30.239 v 0 c -20.805,0 -41.339,-3.202 -61.026,-9.516" />
          </g>
        </g>
      </g>
    </g>
    <g
       id="g72"
       style="stroke-width:8.58968">
      <g
         id="g74"
         style="stroke-width:8.58968">
        <g
           id="g80"
           style="stroke-width:8.58968">
          <g
             id="g82"
             style="stroke-width:8.58968">
            <path
               id="path90"
               style="fill:url(#radialGradient88);stroke:none;stroke-width:8.58968"
               d="m 68.429,117.545 c -4.9,-1.795 -7.417,-7.222 -5.622,-12.123 v 0 c 1.796,-4.897 7.223,-7.417 12.123,-5.621 v 0 c 14.546,5.329 29.855,8.031 45.5,8.031 v 0 c 27.047,0 53.073,-8.133 75.265,-23.524 v 0 c 1.644,-1.136 3.519,-1.684 5.377,-1.684 v 0 c 2.992,0 5.938,1.42 7.774,4.068 v 0 c 2.971,4.286 1.907,10.172 -2.383,13.146 v 0 c -25.368,17.591 -55.119,26.892 -86.033,26.892 v 0 c -17.869,0 -35.365,-3.09 -52.001,-9.185" />
          </g>
        </g>
      </g>
    </g>
    <g
       id="g92"
       style="stroke-width:8.58968">
      <g
         id="g94"
         style="stroke-width:8.58968">
        <g
           id="g100"
           style="stroke-width:8.58968">
          <g
             id="g102"
             style="stroke-width:8.58968">
            <path
               id="path110"
               style="fill:url(#radialGradient108);stroke:none;stroke-width:8.58968"
               d="M 71.817,71.623 C 58.871,65.059 47.572,56.094 38.187,44.995 v 0 c 2.536,-2.716 5.161,-5.342 7.9,-7.847 v 0 L 56.78,28.27 c 6.747,-5.058 13.975,-9.503 21.576,-13.312 v 0 c 4.626,4.941 10.01,8.997 16.063,12.065 v 0 c 8.123,4.117 16.874,6.203 26.011,6.203 v 0 c 14.518,0 28.394,-5.422 39.074,-15.27 v 0 c 4.68,-4.316 8.561,-9.317 11.59,-14.899 v 0 c 8.379,1.77 16.48,4.283 24.242,7.459 v 0 l 12.705,5.947 c 3.246,1.723 6.408,3.574 9.499,5.534 v 0 c -5.94,12.399 -14.046,23.409 -24.141,32.715 v 0 C 173.46,73.101 147.545,83.228 120.43,83.228 v 0 c -17.065,0 -33.419,-3.907 -48.613,-11.605" />
          </g>
        </g>
      </g>
    </g>
  </g>
  <path
     style="display:inline;fill:none;fill-opacity:1;stroke:url(#linearGradient2412);stroke-width:1.00365;stroke-linecap:round;stroke-linejoin:round;stroke-miterlimit:4;stroke-dasharray:none;stroke-dashoffset:0;stroke-opacity:1"
     id="path2555"
     d="m 24.000003,0.55204533 c -11.835469,0 -21.4501823,9.61471067 -21.4501823,21.45017967 0,11.83547 9.6147133,21.450184 21.4501823,21.450181 11.835464,0 21.450188,-9.614711 21.450176,-21.450181 0,-11.835469 -9.614712,-21.45017967 -21.450176,-21.45017967 z" />
  <path
     style="display:inline;opacity:0.4;fill:none;fill-opacity:1;fill-rule:nonzero;stroke:url(#linearGradient2407);stroke-width:1;stroke-miterlimit:4;stroke-dasharray:none;stroke-opacity:1"
     id="path8655"
     d="m 44.352061,22.001504 c 0,11.240494 -9.112597,20.352779 -20.351802,20.352779 -11.240232,0 -20.3523166,-9.112388 -20.3523166,-20.352779 0,-11.239975 9.1120846,-20.3513372 20.3523166,-20.3513372 11.239205,0 20.351802,9.1113622 20.351802,20.3513372 z" />
</svg>
